<svg width="48" height="49" viewBox="0 0 48 49" fill="none" xmlns="http://www.w3.org/2000/svg">
<g clip-path="url(#clip0_1_1736)">
<path d="M13.0041 13.1771H12.4022L11.2775 18.8021H14.1288L13.0041 13.1771Z" fill="black"/>
<path d="M35.7539 24.4271C36.3611 26.0582 37.1688 27.3786 38.0626 28.5021C38.9564 27.3786 39.8578 26.0581 40.465 24.4271H35.7539Z" fill="black"/>
<path d="M43.7816 8.86456H26.3176L29.959 38.0845C30.0234 39.2796 29.6967 40.4048 28.9167 41.2857L22.75 48.3333H43.7816C46.1079 48.3333 48.0003 46.4409 48.0003 44.1146V13.1771C48.0003 10.8508 46.1079 8.86456 43.7816 8.86456ZM43.7816 24.4271H43.406C42.6059 26.9942 41.337 29.003 40.0183 30.5866C41.0513 31.5311 42.156 32.3058 43.2542 33.1736C43.8599 33.6583 43.9588 34.5427 43.4726 35.1497C42.9887 35.7558 42.1008 35.8541 41.4964 35.3681C40.3031 34.4262 39.183 33.6377 38.0628 32.6098C36.9427 33.6377 35.9163 34.4262 34.723 35.3681C34.1186 35.8541 33.2308 35.7558 32.7468 35.1497C32.2607 34.5427 32.3596 33.6583 32.9652 33.1736C34.0635 32.3058 35.0744 31.5311 36.1074 30.5866C34.7887 29.0031 33.6135 26.9943 32.8134 24.4271H32.4378C31.6606 24.4271 31.0316 23.7981 31.0316 23.0208C31.0316 22.2435 31.6606 21.6146 32.4378 21.6146H36.6566V20.2083C36.6566 19.431 37.2856 18.8021 38.0628 18.8021C38.8401 18.8021 39.4691 19.431 39.4691 20.2083V21.6146H43.7816C44.5589 21.6146 45.1878 22.2435 45.1878 23.0208C45.1878 23.7981 44.5589 24.4271 43.7816 24.4271Z" fill="black"/>
<path d="M22.8904 4.02884C22.6281 1.92219 20.8277 0.333313 18.7046 0.333313H4.21875C1.89244 0.333313 0 2.22575 0 4.55206V35.6771C0 38.0034 1.89244 39.8958 4.21875 39.8958C12.6253 39.8958 18.6728 39.8958 26.3954 39.8958C26.8057 39.4269 27.1495 39.1333 27.1641 38.5212C27.1676 38.3677 22.9094 4.18109 22.8904 4.02884ZM17.2448 27.2121C16.4991 27.3656 15.7437 26.8814 15.59 26.1093L14.6912 21.6146H10.7152L9.81637 26.1093C9.66534 26.8701 8.93194 27.37 8.16159 27.2121C7.40081 27.0597 6.90637 26.3195 7.05881 25.5573L9.87122 11.4948C10.003 10.8384 10.5799 10.3646 11.25 10.3646H14.1562C14.8264 10.3646 15.4032 10.8384 15.535 11.4948L18.3475 25.5573C18.5 26.3195 18.0056 27.0597 17.2448 27.2121Z" fill="black"/>
<path d="M16.4336 42.7083L16.6749 44.6378C16.8358 45.9299 17.6943 47.2476 19.1066 47.9055C21.7717 44.9717 20.1593 46.7466 23.8278 42.7083H16.4336Z" fill="black"/>
</g>
<defs>
<clipPath id="clip0_1_1736">
<rect width="48" height="48" fill="white" transform="translate(0 0.333313)"/>
</clipPath>
</defs>
</svg>
