<svg width="48" height="49" viewBox="0 0 48 49" fill="none" xmlns="http://www.w3.org/2000/svg">
<path d="M33.621 19.7238C34.3245 18.2853 35.544 17.2038 37.0605 16.6818C37.695 16.4628 38.349 16.3788 39 16.3758V7.83331C39 5.35231 36.981 3.33331 34.5 3.33331H10.5C8.019 3.33331 6 5.35231 6 7.83331V37.8333C6 40.3143 8.019 42.3333 10.5 42.3333H25.4235L25.2615 41.8623C24.609 39.9588 24.7365 37.9248 25.617 36.1263L33.621 19.7238ZM12 12.3333H30C30.8295 12.3333 31.5 13.0053 31.5 13.8333C31.5 14.6613 30.8295 15.3333 30 15.3333H12C11.1705 15.3333 10.5 14.6613 10.5 13.8333C10.5 13.0053 11.1705 12.3333 12 12.3333ZM12 18.3333H28.5C29.3295 18.3333 30 19.0053 30 19.8333C30 20.6613 29.3295 21.3333 28.5 21.3333H12C11.1705 21.3333 10.5 20.6613 10.5 19.8333C10.5 19.0053 11.1705 18.3333 12 18.3333ZM22.5 33.3333H12C11.1705 33.3333 10.5 32.6613 10.5 31.8333C10.5 31.0053 11.1705 30.3333 12 30.3333H22.5C23.3295 30.3333 24 31.0053 24 31.8333C24 32.6613 23.3295 33.3333 22.5 33.3333ZM12 27.3333C11.1705 27.3333 10.5 26.6613 10.5 25.8333C10.5 25.0053 11.1705 24.3333 12 24.3333H25.5C26.3295 24.3333 27 25.0053 27 25.8333C27 26.6613 26.3295 27.3333 25.5 27.3333H12ZM44.406 24.9858L36.399 41.3943C35.8695 42.4758 34.953 43.2858 33.8175 43.6758L30.981 44.6508C30.8205 44.7063 30.654 44.7333 30.4935 44.7333C29.871 44.7333 29.289 44.3433 29.076 43.7208L28.0995 40.8843C27.708 39.7443 27.7845 38.5233 28.3125 37.4448L36.3195 21.0393C36.669 20.3193 37.281 19.7793 38.0385 19.5183C38.7945 19.2573 39.609 19.3053 40.329 19.6593L43.026 20.9748C43.746 21.3258 44.286 21.9378 44.547 22.6953C44.808 23.4528 44.7585 24.2658 44.406 24.9858Z" fill="black"/>
</svg>
