<svg width="188" height="37" viewBox="0 0 188 37" fill="none" xmlns="http://www.w3.org/2000/svg">
<path d="M26.7286 20.525C23.8026 21.2497 22.9566 23.1273 21.5745 25.6128C20.25 27.9964 18.3612 30.1099 15.8356 31.194C14.5541 31.7436 12.9718 32.1523 11.5784 31.8409C14.0237 29.6656 14.3573 26.5424 14.3573 23.4089C14.3573 19.7087 16.6635 18.6211 17.4405 18.36C16.6635 18.0979 14.3573 17.0102 14.3573 13.3112C14.3573 10.1776 14.0237 7.05214 11.5784 4.87917C12.9718 4.56777 14.5541 4.97534 15.8356 5.52602C18.3612 6.61022 20.2466 8.72365 21.5745 11.1061C22.9566 13.5928 23.8026 15.4704 26.7286 16.1951C26.7286 16.1951 30.0799 17.0228 35.001 15.1498C34.2095 10.7647 31.8264 6.83766 28.3202 4.1404C24.8139 1.44314 20.4379 0.170637 16.052 0.572905C11.6661 0.975173 7.58729 3.02313 4.61709 6.3144C1.64689 9.60566 0 13.9023 0 18.36C0 22.8178 1.64689 27.1144 4.61709 30.4057C7.58729 33.6969 11.6661 35.7449 16.052 36.1472C20.4379 36.5494 24.8139 35.2769 28.3202 32.5797C31.8264 29.8824 34.2095 25.9554 35.001 21.5703C30.0799 19.6961 26.7297 20.525 26.7286 20.525Z" fill="#42175B"/>
<path d="M48.4214 22.0252C48.4937 22.0257 48.5654 22.0393 48.6329 22.0653C48.7096 22.0966 48.779 22.1438 48.8365 22.2038L50.0185 23.4632C49.5119 24.1409 48.8421 24.6758 48.0731 25.0168C47.2934 25.3648 46.3716 25.5388 45.3077 25.5388C44.4078 25.5543 43.5144 25.3828 42.6826 25.0351C41.9366 24.7179 41.266 24.2433 40.7157 23.6429C40.1648 23.0325 39.7416 22.3155 39.4715 21.5352C39.177 20.6849 39.0308 19.7892 39.0395 18.8883C39.0294 17.9703 39.199 17.0594 39.5383 16.2081C39.8519 15.4136 40.3256 14.694 40.9293 14.0951C41.533 13.4962 42.2534 13.0313 43.0445 12.73C43.9144 12.394 44.8392 12.2273 45.7703 12.2388C46.2277 12.2361 46.6843 12.2795 47.1332 12.3682C47.542 12.4487 47.9423 12.5683 48.3287 12.7254C48.6877 12.8705 49.0307 13.0532 49.3523 13.2704C49.6533 13.4722 49.9314 13.7072 50.1813 13.971L49.1758 15.3369C49.1102 15.4225 49.0342 15.4994 48.9496 15.5658C48.841 15.6407 48.7109 15.6769 48.5798 15.6689C48.4753 15.6694 48.3721 15.6446 48.2789 15.5967C48.176 15.5443 48.0759 15.4862 47.9792 15.4227L47.6308 15.1995C47.4873 15.1109 47.3358 15.0362 47.1784 14.9762C46.9806 14.9015 46.7771 14.8433 46.5699 14.8022C46.301 14.7518 46.0279 14.728 45.7545 14.7312C45.2459 14.7245 44.7413 14.8231 44.2717 15.0209C43.8323 15.2091 43.4392 15.4929 43.1203 15.8521C42.7861 16.2328 42.5297 16.6768 42.3659 17.1583C42.1803 17.7135 42.0896 18.2966 42.0978 18.8825C42.0881 19.4858 42.1787 20.0865 42.3659 20.6594C42.5243 21.1391 42.7732 21.5831 43.0988 21.9668C43.396 22.313 43.7648 22.589 44.1789 22.7751C44.5958 22.9607 45.0468 23.0551 45.5022 23.0522C45.7497 23.0532 45.9971 23.0399 46.2431 23.0121C46.4546 22.9881 46.6631 22.9417 46.8651 22.8736C47.0559 22.8084 47.2393 22.7232 47.4126 22.6194C47.5987 22.5058 47.7743 22.3756 47.9374 22.2301C48.0064 22.1719 48.0824 22.1227 48.1636 22.0836C48.2441 22.0448 48.3322 22.0248 48.4214 22.0252Z" fill="#42175B"/>
<path d="M64.0661 18.8826C64.0737 19.7808 63.9105 20.672 63.5854 21.5078C63.2786 22.3033 62.8131 23.0262 62.218 23.6315C61.623 24.2368 60.911 24.7115 60.1267 25.026C58.3664 25.7033 56.4218 25.7033 54.6615 25.026C53.875 24.7129 53.1609 24.2388 52.5638 23.6334C51.9667 23.0281 51.4995 22.3044 51.1915 21.5078C50.5508 19.8178 50.5508 17.9475 51.1915 16.2574C51.4977 15.4688 51.9595 14.7516 52.5487 14.1497C53.1522 13.5426 53.8709 13.0655 54.6615 12.7472C55.5318 12.3995 56.4608 12.2268 57.3964 12.2389C58.3309 12.2263 59.2588 12.4006 60.1267 12.7518C60.9145 13.0724 61.6301 13.551 62.2304 14.1589C62.8184 14.7614 63.28 15.4779 63.5877 16.2654C63.9114 17.0987 64.0738 17.9872 64.0661 18.8826ZM61.0123 18.8826C61.0201 18.2942 60.9369 17.7082 60.7657 17.1458C60.6196 16.6652 60.3779 16.2198 60.0554 15.8373C59.7457 15.4791 59.3587 15.1979 58.9244 15.0152C58.4397 14.818 57.9209 14.721 57.3986 14.7302C56.8719 14.7209 56.3486 14.8178 55.8593 15.0152C55.4224 15.1967 55.033 15.4781 54.7215 15.8373C54.399 16.2198 54.1572 16.6652 54.0112 17.1458C53.6824 18.2825 53.6824 19.4907 54.0112 20.6274C54.1572 21.1081 54.399 21.5534 54.7215 21.936C55.0323 22.2948 55.422 22.5748 55.8593 22.7534C56.3493 22.9482 56.8723 23.0435 57.3986 23.0339C57.9205 23.0434 58.4391 22.948 58.9244 22.7534C59.3591 22.5737 59.7464 22.2938 60.0554 21.936C60.3779 21.5534 60.6196 21.1081 60.7657 20.6274C60.9376 20.0624 61.0212 19.4737 61.0134 18.8826H61.0123Z" fill="#42175B"/>
<path d="M67.3889 12.4012C67.4713 12.4118 67.5517 12.4346 67.6276 12.4688C67.7016 12.5039 67.7698 12.5502 67.83 12.6061C67.9105 12.6817 67.986 12.7624 68.0562 12.8477L74.1639 20.6615C74.1401 20.4107 74.1231 20.1692 74.1107 19.9333C74.0983 19.6975 74.0937 19.4754 74.0937 19.2681V12.3829H76.7223V25.3944H75.1693C74.9703 25.3997 74.7723 25.363 74.588 25.2867C74.4055 25.1958 74.2478 25.061 74.1288 24.894L68.0687 17.1433C68.086 17.3722 68.1007 17.594 68.1128 17.8084C68.1249 18.0229 68.1305 18.2267 68.1298 18.4198V25.3944H65.4922V12.3829H67.0621C67.1713 12.382 67.2805 12.3882 67.3889 12.4012Z" fill="#42175B"/>
<path d="M88.1654 12.3828V14.7767H84.546V25.3943H81.5646V14.7767H77.9453V12.3828H88.1654Z" fill="#42175B"/>
<path d="M97.6731 12.3827V14.7045H92.398V17.7407H96.438V19.9732H92.398V23.0724H97.6731V25.3942H89.3984V12.3827H97.6731Z" fill="#42175B"/>
<path d="M101.259 12.4012C101.342 12.4115 101.422 12.4342 101.498 12.4687C101.572 12.5038 101.64 12.5502 101.701 12.6061C101.78 12.6813 101.853 12.762 101.921 12.8477L108.029 20.6614C108.005 20.4107 107.987 20.1691 107.976 19.9333C107.964 19.6974 107.957 19.4753 107.957 19.2681V12.3829H110.587V25.3943H109.034C108.835 25.3997 108.636 25.363 108.452 25.2867C108.272 25.1948 108.116 25.0601 107.999 24.894L101.938 17.1432C101.956 17.3722 101.971 17.5939 101.982 17.8084C101.995 18.0259 102 18.2297 102 18.4198V25.3943H99.3672V12.3829H100.937C101.045 12.3822 101.152 12.3883 101.259 12.4012Z" fill="#42175B"/>
<path d="M122.042 12.3828V14.7767H118.422V25.3943H115.44V14.7767H111.82V12.3828H122.042Z" fill="#42175B"/>
<path d="M143.722 12.5703L139.771 25.3929H138.074L134.986 15.8824C134.907 15.6587 134.845 15.429 134.801 15.1955C134.736 15.4703 134.675 15.6992 134.616 15.8824L131.493 25.394H129.807L125.855 12.5715H127.425C127.573 12.566 127.718 12.6086 127.84 12.6928C127.952 12.7703 128.032 12.8857 128.067 13.018L130.563 21.6045C130.609 21.7705 130.652 21.948 130.691 22.1495C130.729 22.351 130.769 22.5502 130.804 22.7654C130.846 22.5502 130.887 22.3452 130.932 22.1495C130.972 21.9648 131.024 21.7828 131.087 21.6045L133.945 13.018C133.985 12.8918 134.064 12.7821 134.171 12.7054C134.288 12.615 134.433 12.5678 134.58 12.5715H135.119C135.264 12.5656 135.407 12.6095 135.525 12.6962C135.629 12.7796 135.707 12.8912 135.751 13.018L138.6 21.6045C138.716 21.9706 138.81 22.3433 138.883 22.7207C138.953 22.3097 139.03 21.9377 139.109 21.6045L141.615 13.018C141.651 12.8897 141.732 12.7788 141.842 12.7054C141.961 12.6155 142.107 12.5684 142.256 12.5715L143.722 12.5703Z" fill="#42175B"/>
<path d="M155.894 12.5703V25.3929H154.015V19.6159H147.408V25.394H145.516V12.5715H147.403V18.2329H154.011V12.5703H155.894Z" fill="#42175B"/>
<path d="M169.473 25.3929H168.026C167.88 25.399 167.737 25.3545 167.62 25.2669C167.515 25.1843 167.437 25.073 167.393 24.9464L166.274 21.9697H160.689L159.569 24.9464C159.522 25.0675 159.444 25.1737 159.343 25.2543C159.228 25.3474 159.084 25.3964 158.937 25.3929H157.484L162.53 12.5703H164.427L169.473 25.3929ZM165.764 20.6153L163.885 15.6409C163.724 15.2211 163.588 14.7917 163.479 14.3552C163.415 14.6116 163.348 14.8498 163.28 15.0696C163.213 15.2905 163.146 15.4863 163.082 15.6592L161.211 20.6153H165.764Z" fill="#42175B"/>
<path d="M178.302 23.794V25.3968H171.051V12.5742H172.929V23.794H178.302Z" fill="#42175B"/>
<path d="M187.997 23.8473L187.988 25.3929H180.137V12.5703H187.988V14.1159H182.024V18.1779H186.823V19.6662H182.024V23.845L187.997 23.8473Z" fill="#42175B"/>
</svg>
