<svg width="33" height="32" viewBox="0 0 33 32" fill="none" xmlns="http://www.w3.org/2000/svg">
<g clip-path="url(#clip0_1_3458)">
<path d="M30.6055 13.6358C30.113 13.2727 29.4925 12.8191 29.4174 12.5228C29.449 11.9492 29.6128 11.3907 29.896 10.8908C30.3301 9.8947 30.778 8.86242 30.28 8.004C29.7819 7.14558 28.6494 7.00648 27.5601 6.89098C26.9955 6.8872 26.4392 6.75442 25.9337 6.50282C25.6817 5.99558 25.5494 5.43728 25.5469 4.87089C25.4245 3.78155 25.2979 2.65464 24.4339 2.15099C23.5699 1.64734 22.5362 2.08838 21.5401 2.528C21.0398 2.81109 20.4809 2.97485 19.9068 3.0066C19.6063 2.92593 19.1542 2.31096 18.7938 1.81846C18.1622 0.96702 17.4512 0.00151825 16.4245 0.00151825C15.3978 0.00151825 14.6869 0.96702 14.0594 1.81846C13.6949 2.31233 13.2427 2.93148 12.9464 3.00797C12.3729 2.97341 11.8145 2.80985 11.3131 2.52937C10.3114 2.08832 9.27908 1.64871 8.42347 2.14401C7.56785 2.63932 7.42457 3.77457 7.3021 4.87083C7.29812 5.43526 7.16587 5.99141 6.91531 6.49721C6.41081 6.74523 5.85669 6.87552 5.29454 6.87839C4.20382 7.0008 3.07548 7.12745 2.57326 7.99141C2.07105 8.85537 2.51216 9.88778 2.95177 10.8853C3.23591 11.3867 3.39973 11.9473 3.43038 12.5228C3.34971 12.8233 2.73474 13.2769 2.24224 13.6358C1.39079 14.2619 0.425293 14.9742 0.425293 16.0009C0.425293 17.0277 1.39079 17.74 2.24367 18.3661C2.73617 18.7292 3.35669 19.1828 3.43181 19.4791C3.40025 20.0527 3.23643 20.6112 2.9532 21.111C2.51914 22.1072 2.07118 23.1395 2.56922 23.9979C3.06726 24.8563 4.19978 24.9954 5.28912 25.1109C5.85375 25.1147 6.41003 25.2474 6.91551 25.499C7.1675 26.0063 7.29982 26.5646 7.3023 27.131C7.42471 28.2203 7.55135 29.3472 8.41531 29.8509C9.27928 30.3545 10.3046 29.901 11.3022 29.4669C11.8075 29.1869 12.3697 29.0252 12.9466 28.9939C13.2471 29.0746 13.6993 29.6895 14.0596 30.182C14.6871 31.0335 15.398 31.999 16.4248 31.999C17.4515 31.999 18.1624 31.0335 18.7899 30.182C19.1544 29.6882 19.6066 29.069 19.9029 28.9925C20.4768 29.025 21.0356 29.1887 21.5362 29.4711C22.5324 29.9052 23.5647 30.3504 24.4216 29.8565C25.2786 29.3626 25.4205 28.2259 25.543 27.1352C25.547 26.5708 25.6792 26.0146 25.9298 25.5088C26.4352 25.2588 26.9909 25.127 27.5547 25.1235C28.6455 25.0011 29.7738 24.8744 30.276 24.0105C30.7782 23.1465 30.3247 22.1211 29.892 21.1236C29.6088 20.6196 29.4469 20.0566 29.419 19.4792C29.4997 19.1786 30.1147 18.7251 30.6072 18.3661C31.4586 17.7387 32.4256 17.0264 32.4256 16.001C32.4256 14.9756 31.4584 14.2619 30.6055 13.6358Z" fill="#FFC107"/>
<path d="M12.25 19.4777C12.0311 19.4777 11.8249 19.3746 11.6935 19.1994L8.7719 15.304V18.7821C8.7719 19.1663 8.46044 19.4777 8.07626 19.4777C7.69208 19.4777 7.38062 19.1663 7.38062 18.7821V13.2171C7.38062 12.8329 7.69208 12.5215 8.07626 12.5215C8.29518 12.5215 8.50139 12.6246 8.63273 12.7997L11.5543 16.6952V13.2171C11.5543 12.8329 11.8658 12.5215 12.25 12.5215C12.6342 12.5215 12.9456 12.8329 12.9456 13.2171V18.7821C12.9454 19.0813 12.7538 19.347 12.4698 19.4415C12.399 19.4655 12.3248 19.4777 12.25 19.4777Z" fill="#FAFAFA"/>
<path d="M17.8151 19.4777H15.0326C14.6484 19.4777 14.3369 19.1663 14.3369 18.7821V13.2171C14.3369 12.8329 14.6484 12.5215 15.0326 12.5215H17.8151C18.1992 12.5215 18.5107 12.8329 18.5107 13.2171C18.5107 13.6013 18.1992 13.9128 17.8151 13.9128H15.7282V18.0865H17.8151C18.1992 18.0865 18.5107 18.398 18.5107 18.7821C18.5107 19.1663 18.1992 19.4777 17.8151 19.4777Z" fill="#FAFAFA"/>
<path d="M17.8151 16.6953H15.0326C14.6484 16.6953 14.3369 16.3839 14.3369 15.9997C14.3369 15.6155 14.6484 15.3041 15.0326 15.3041H17.8151C18.1992 15.3041 18.5107 15.6155 18.5107 15.9997C18.5107 16.3839 18.1992 16.6953 17.8151 16.6953Z" fill="#FAFAFA"/>
<path d="M24.7711 19.4778C24.4713 19.4782 24.205 19.2865 24.1103 19.002L23.3799 16.808L22.6495 19.002C22.5606 19.3022 22.2745 19.4998 21.9622 19.4765C21.6532 19.4647 21.3891 19.2505 21.3139 18.9506L19.9227 13.3856C19.8297 13.0126 20.0568 12.6348 20.4298 12.5418C20.8028 12.4488 21.1806 12.6759 21.2736 13.0489L22.0847 16.2961L22.7205 14.3887C22.8858 14.0241 23.3153 13.8625 23.68 14.0278C23.84 14.1004 23.9682 14.2286 24.0408 14.3887L24.6766 16.2961L25.4876 13.0489C25.5806 12.6759 25.9584 12.4488 26.3315 12.5418C26.7045 12.6348 26.9316 13.0125 26.8386 13.3856L25.4473 18.9506C25.3721 19.2505 25.108 19.4647 24.799 19.4765L24.7711 19.4778Z" fill="#FAFAFA"/>
</g>
<defs>
<clipPath id="clip0_1_3458">
<rect width="32" height="32" fill="white" transform="translate(0.425049)"/>
</clipPath>
</defs>
</svg>
