<svg width="56" height="57" viewBox="0 0 56 57" fill="none" xmlns="http://www.w3.org/2000/svg">
<path d="M14 17.8335C14 16.8675 13.216 16.0835 12.25 16.0835H1.75C0.784 16.0835 0 16.8675 0 17.8335C0 18.7995 0.784 19.5835 1.75 19.5835H12.25C13.216 19.5835 14 18.7995 14 17.8335Z" fill="#FFC107"/>
<path d="M12.25 23.0837H5.25C4.284 23.0837 3.5 23.8677 3.5 24.8337C3.5 25.7997 4.284 26.5837 5.25 26.5837H12.25C13.216 26.5837 14 25.7997 14 24.8337C14 23.8677 13.216 23.0837 12.25 23.0837Z" fill="#FFC107"/>
<path d="M12.25 30.0837H8.75C7.784 30.0837 7 30.8677 7 31.8337C7 32.7997 7.784 33.5837 8.75 33.5837H12.25C13.216 33.5837 14 32.7997 14 31.8337C14 30.8677 13.216 30.0837 12.25 30.0837Z" fill="#FFC107"/>
<path d="M55.7515 29.184L50.5015 20.434C50.1865 19.9055 49.616 19.5835 49 19.5835H36.75C35.784 19.5835 35 20.3675 35 21.3335V38.8335C35 39.7995 35.784 40.5835 36.75 40.5835H54.25C55.216 40.5835 56 39.7995 56 38.8335V30.0835C56 29.765 55.916 29.4535 55.7515 29.184Z" fill="#F44336"/>
<path d="M42 23.0835H48.0095L52.2095 30.0835H42V23.0835Z" fill="#FAFAFA"/>
<path d="M36.75 12.5835H12.25C11.284 12.5835 10.5 13.3675 10.5 14.3335V38.8335C10.5 39.7995 11.284 40.5835 12.25 40.5835H38.5V14.3335C38.5 13.3675 37.716 12.5835 36.75 12.5835Z" fill="#FFC107"/>
<path d="M47.25 42.3335C49.183 42.3335 50.75 40.7665 50.75 38.8335C50.75 36.9005 49.183 35.3335 47.25 35.3335C45.317 35.3335 43.75 36.9005 43.75 38.8335C43.75 40.7665 45.317 42.3335 47.25 42.3335Z" fill="#FAFAFA"/>
<path d="M47.25 44.0835C44.3555 44.0835 42 41.728 42 38.8335C42 35.939 44.3555 33.5835 47.25 33.5835C50.1445 33.5835 52.5 35.939 52.5 38.8335C52.5 41.728 50.1445 44.0835 47.25 44.0835ZM47.25 37.0835C46.2875 37.0835 45.5 37.871 45.5 38.8335C45.5 39.796 46.2875 40.5835 47.25 40.5835C48.2125 40.5835 49 39.796 49 38.8335C49 37.871 48.2125 37.0835 47.25 37.0835Z" fill="#455A64"/>
<path d="M38.5 40.5835H12.25C11.284 40.5835 10.5 39.7995 10.5 38.8335V33.5835H38.5V40.5835Z" fill="#F44336"/>
<path d="M22.75 42.3335C24.683 42.3335 26.25 40.7665 26.25 38.8335C26.25 36.9005 24.683 35.3335 22.75 35.3335C20.817 35.3335 19.25 36.9005 19.25 38.8335C19.25 40.7665 20.817 42.3335 22.75 42.3335Z" fill="#FAFAFA"/>
<path d="M22.75 44.0835C19.8555 44.0835 17.5 41.728 17.5 38.8335C17.5 35.939 19.8555 33.5835 22.75 33.5835C25.6445 33.5835 28 35.939 28 38.8335C28 41.728 25.6445 44.0835 22.75 44.0835ZM22.75 37.0835C21.784 37.0835 21 37.871 21 38.8335C21 39.796 21.784 40.5835 22.75 40.5835C23.716 40.5835 24.5 39.796 24.5 38.8335C24.5 37.871 23.716 37.0835 22.75 37.0835Z" fill="#455A64"/>
</svg>
