<svg width="57" height="57" viewBox="0 0 57 57" fill="none" xmlns="http://www.w3.org/2000/svg">
<path d="M37.1046 43.4183C36.9733 43.0987 36.7503 42.8251 36.4638 42.632C36.1773 42.4389 35.84 42.335 35.4946 42.3333H33.7446V37.0833C33.7446 36.6191 33.5602 36.174 33.232 35.8458C32.9038 35.5176 32.4587 35.3333 31.9946 35.3333H24.9946C24.5304 35.3333 24.0853 35.5176 23.7571 35.8458C23.4289 36.174 23.2446 36.6191 23.2446 37.0833V42.3333H21.4946C21.147 42.3312 20.8066 42.4328 20.517 42.6249C20.2273 42.8171 20.0014 43.0911 19.8682 43.4122C19.7349 43.7332 19.7002 44.0866 19.7686 44.4274C19.8369 44.7683 20.0053 45.081 20.2521 45.3258L27.2521 52.3258C27.5799 52.6517 28.0235 52.8346 28.4858 52.8346C28.9481 52.8346 29.3917 52.6517 29.7196 52.3258L36.7196 45.3258C36.9653 45.0816 37.1331 44.77 37.2016 44.4304C37.2702 44.0909 37.2364 43.7386 37.1046 43.4183Z" fill="#E53A35"/>
<path d="M52.7322 4.65576C52.5746 4.40356 52.3553 4.19569 52.095 4.05178C51.8348 3.90787 51.5421 3.83266 51.2447 3.83326H5.7447C5.44639 3.83416 5.15326 3.9113 4.89315 4.05737C4.63304 4.20343 4.41459 4.41356 4.25854 4.6678C4.10249 4.92204 4.01402 5.21195 4.00153 5.51001C3.98905 5.80806 4.05296 6.10435 4.1872 6.37076L7.6872 13.3708C7.83263 13.6594 8.05513 13.9021 8.33004 14.0719C8.60495 14.2418 8.92154 14.3323 9.2447 14.3333H47.7447C48.0679 14.3323 48.3845 14.2418 48.6594 14.0719C48.9343 13.9021 49.1568 13.6594 49.3022 13.3708L52.8022 6.37076C52.9388 6.10296 53.0042 5.80447 52.9919 5.50408C52.9796 5.20369 52.8902 4.91153 52.7322 4.65576Z" fill="#70B2E2"/>
<path d="M47.4298 16.8358C47.269 16.6039 47.0545 16.4144 46.8047 16.2834C46.5548 16.1524 46.277 16.0837 45.9948 16.0833H10.9948C10.7111 16.0841 10.4318 16.1539 10.1811 16.2867C9.93032 16.4195 9.71561 16.6112 9.55545 16.8454C9.39529 17.0796 9.29448 17.3493 9.26171 17.6311C9.22894 17.913 9.26519 18.1985 9.36734 18.4633L12.0623 25.4633C12.1892 25.7921 12.4125 26.075 12.7029 26.2749C12.9933 26.4747 13.3373 26.5822 13.6898 26.5833H43.2998C43.6524 26.5822 43.9963 26.4747 44.2868 26.2749C44.5772 26.075 44.8004 25.7921 44.9273 25.4633L47.6223 18.4633C47.7255 18.1969 47.7619 17.9093 47.7284 17.6256C47.6948 17.3419 47.5923 17.0707 47.4298 16.8358Z" fill="#FFD54F"/>
<path d="M42.1266 29.0168C41.9635 28.805 41.7542 28.6334 41.5145 28.5151C41.2749 28.3968 41.0113 28.3349 40.7441 28.3343H16.2441C15.9704 28.3248 15.6984 28.3797 15.4498 28.4945C15.2012 28.6093 14.9831 28.7809 14.8128 28.9954C14.6426 29.2098 14.5251 29.4612 14.4697 29.7294C14.4144 29.9975 14.4227 30.2749 14.4941 30.5393L16.3841 37.5393C16.4866 37.9211 16.7154 38.2569 17.0332 38.492C17.3509 38.7272 17.739 38.8478 18.1341 38.8343H38.8541C39.2491 38.8478 39.6372 38.7272 39.9549 38.492C40.2727 38.2569 40.5015 37.9211 40.6041 37.5393L42.4941 30.5393C42.5553 30.2744 42.5539 29.9989 42.4901 29.7346C42.4263 29.4704 42.3019 29.2246 42.1266 29.0168Z" fill="#66BB6A"/>
<path d="M37.1061 43.4183C36.9748 43.0987 36.7519 42.8251 36.4654 42.632C36.1788 42.4389 35.8416 42.335 35.4961 42.3333H33.7461V37.0833C33.7461 36.6191 33.5617 36.174 33.2335 35.8458C32.9053 35.5176 32.4602 35.3333 31.9961 35.3333H28.4961V52.8333C28.7264 52.8346 28.9547 52.7904 29.1679 52.7034C29.3811 52.6163 29.5751 52.4879 29.7386 52.3257L36.7386 45.3257C36.9814 45.0797 37.1459 44.7672 37.2113 44.4277C37.2767 44.0882 37.2401 43.7369 37.1061 43.4183Z" fill="#D32E2E"/>
<path d="M52.7336 4.65576C52.576 4.40356 52.3567 4.19569 52.0964 4.05178C51.8361 3.90787 51.5435 3.83266 51.2461 3.83326H28.4961V14.3333H47.7461C48.0693 14.3323 48.3858 14.2418 48.6608 14.0719C48.9357 13.9021 49.1582 13.6594 49.3036 13.3708L52.8036 6.37076C52.9402 6.10296 53.0056 5.80447 52.9933 5.50408C52.981 5.20369 52.8916 4.91153 52.7336 4.65576Z" fill="#57A0D7"/>
<path d="M47.4311 16.8358C47.2703 16.6039 47.0558 16.4144 46.8059 16.2834C46.5561 16.1524 46.2782 16.0837 45.9961 16.0833H28.4961V26.5833H43.3011C43.6536 26.5822 43.9976 26.4747 44.288 26.2749C44.5784 26.075 44.8017 25.7921 44.9286 25.4633L47.6236 18.4633C47.7268 18.1969 47.7632 17.9093 47.7296 17.6256C47.6961 17.3419 47.5936 17.0707 47.4311 16.8358Z" fill="#FFCB29"/>
<path d="M42.1286 29.0158C41.9656 28.804 41.7562 28.6324 41.5166 28.514C41.2769 28.3957 41.0134 28.3339 40.7461 28.3333H28.4961V38.8333H38.8561C39.2512 38.8468 39.6392 38.7262 39.957 38.491C40.2747 38.2559 40.5035 37.92 40.6061 37.5383L42.4961 30.5383C42.5573 30.2734 42.556 29.9979 42.4922 29.7336C42.4284 29.4693 42.3039 29.2235 42.1286 29.0158Z" fill="#42A047"/>
</svg>
