<svg width="57" height="57" viewBox="0 0 57 57" fill="none" xmlns="http://www.w3.org/2000/svg">
<path d="M28.5013 14.333C31.7347 14.333 34.7037 15.44 37.0737 17.2811L44.3478 10.3413C40.1186 6.6131 34.5825 4.33325 28.5013 4.33325C19.2863 4.33325 11.2951 9.53295 7.27344 17.1526L15.3621 23.5383C17.3215 18.1717 22.4564 14.333 28.5013 14.333Z" fill="#F44336"/>
<path d="M52.2915 31.3367C52.4165 30.3535 52.4994 29.3504 52.4994 28.3331C52.4994 26.6175 52.312 24.9469 51.9699 23.3333H28.5V33.333H41.4721C40.4227 36.0605 38.5542 38.3684 36.1758 39.9718L44.2945 46.3813C48.5983 42.6036 51.5434 37.3136 52.2915 31.3367Z" fill="#2196F3"/>
<path d="M14.4998 28.3336C14.4998 26.6467 14.8135 25.0369 15.3602 23.5393L7.27154 17.1536C5.50864 20.4938 4.5 24.294 4.5 28.3336C4.5 32.328 5.49009 36.0861 7.21636 39.3992L15.3153 33.0053C14.7966 31.5424 14.4998 29.9744 14.4998 28.3336Z" fill="#FFC107"/>
<path d="M28.5018 42.333C22.4109 42.333 17.2429 38.4361 15.3177 33.0051L7.21875 39.399C11.2207 47.0799 19.2416 52.3328 28.5018 52.3328C34.5572 52.3328 40.079 50.0832 44.2963 46.3815L36.1776 39.972C33.9841 41.4508 31.3585 42.333 28.5018 42.333Z" fill="#00B060"/>
<path opacity="0.1" d="M28.4982 51.8318C21.435 51.8318 15.084 48.9176 10.5938 44.2747C14.9893 49.2075 21.3713 52.3318 28.4982 52.3318C35.5592 52.3318 41.8884 49.2692 46.274 44.4136C41.7971 48.9812 35.4943 51.8318 28.4982 51.8318Z" fill="black"/>
<path opacity="0.1" d="M28.5 32.8333V33.3332H41.4721L41.6747 32.8333H28.5Z" fill="black"/>
<path d="M52.4884 28.6282C52.49 28.5297 52.4995 28.4329 52.4995 28.3341C52.4995 28.3062 52.4951 28.2792 52.495 28.2512C52.4937 28.3772 52.4873 28.5017 52.4884 28.6282Z" fill="#E6E6E6"/>
<path opacity="0.2" d="M28.5 23.3333V23.8332H52.0706C52.0391 23.6682 52.0047 23.4971 51.9699 23.3333H28.5Z" fill="white"/>
<path d="M51.9693 23.3328H28.4994V33.3325H41.4715C39.4542 38.5756 34.4536 42.3323 28.4994 42.3323C20.7677 42.3323 14.4998 36.0644 14.4998 28.3327C14.4998 20.6008 20.7677 14.333 28.4994 14.333C31.303 14.333 33.8871 15.1943 36.0762 16.6143C36.4113 16.8321 36.757 17.0366 37.0718 17.2811L44.3459 10.3413L44.1819 10.2151C39.973 6.56733 34.5063 4.33325 28.4994 4.33325C15.2449 4.33325 4.5 15.0781 4.5 28.3327C4.5 41.5871 15.2449 52.3321 28.4994 52.3321C40.7345 52.3321 50.8098 43.1698 52.2909 31.3362C52.4159 30.353 52.4988 29.35 52.4988 28.3327C52.4988 26.617 52.3114 24.9464 51.9693 23.3328Z" fill="url(#paint0_linear_1_1855)"/>
<path opacity="0.1" d="M36.0765 16.1141C33.8873 14.6941 31.3033 13.8328 28.4997 13.8328C20.7679 13.8328 14.5 20.1006 14.5 27.8325C14.5 27.9168 14.5011 27.9827 14.5026 28.0668C14.6375 20.4517 20.8523 14.3328 28.4997 14.3328C31.3033 14.3328 33.8873 15.1941 36.0765 16.6141C36.4116 16.8319 36.7573 17.0363 37.0721 17.2808L44.3462 10.3411L37.0721 16.7808C36.7573 16.5363 36.4116 16.3319 36.0765 16.1141Z" fill="black"/>
<path opacity="0.2" d="M28.4994 4.83324C34.4493 4.83324 39.865 7.02996 44.0576 10.6163L44.3459 10.3413L44.1259 10.1497C39.917 6.50192 34.5063 4.33325 28.4994 4.33325C15.2448 4.33325 4.5 15.0781 4.5 28.3327C4.5 28.417 4.51172 28.4984 4.51257 28.5827C4.64807 15.4447 15.3292 4.83324 28.4994 4.83324Z" fill="white"/>
<defs>
<linearGradient id="paint0_linear_1_1855" x1="4.5" y1="28.3327" x2="52.4988" y2="28.3327" gradientUnits="userSpaceOnUse">
<stop stop-color="white" stop-opacity="0.2"/>
<stop offset="1" stop-color="white" stop-opacity="0"/>
</linearGradient>
</defs>
</svg>
