<svg width="57" height="57" viewBox="0 0 57 57" fill="none" xmlns="http://www.w3.org/2000/svg">
<g clip-path="url(#clip0_1_1872)">
<path d="M31.7183 55.6748H53.1195C54.9864 55.6748 56.4998 54.1631 56.4998 52.2983V14.2173C56.4998 12.3525 54.9864 10.8408 53.1196 10.8408H25.457L31.7183 55.6748Z" fill="#F5F5F5"/>
<path d="M53.1185 10.8408H49.7383C51.6052 10.8408 53.1185 12.3526 53.1185 14.2173V52.2983C53.1185 54.1632 51.6051 55.6748 49.7383 55.6748H53.1185C54.9853 55.6749 56.4987 54.1632 56.4987 52.2984V14.2174C56.4987 12.3526 54.9853 10.8408 53.1185 10.8408Z" fill="#EEEEEE"/>
<path d="M50.5491 27.1723H52.8961C53.0206 27.1723 53.1214 27.0714 53.1214 26.9469V24.0173C53.1214 23.8929 53.0206 23.792 52.8961 23.792H45.187C45.0625 23.792 44.9617 23.6912 44.9617 23.5667V21.4568C44.9617 21.3323 44.8609 21.2314 44.7364 21.2314H41.8068C41.6823 21.2314 41.5815 21.3323 41.5815 21.4568V23.5667C41.5815 23.6912 41.4806 23.792 41.3562 23.792H33.6472C33.5227 23.792 33.4219 23.8929 33.4219 24.0173V26.9469C33.4219 27.0714 33.5227 27.1723 33.6472 27.1723H46.3313C46.4991 27.1723 46.6088 27.3489 46.533 27.4985C45.8706 28.8061 44.8695 30.4857 43.444 32.1928C43.3543 32.3002 43.187 32.3002 43.0973 32.1928C42.2261 31.1495 41.5137 30.117 40.9413 29.1745C40.877 29.0685 40.7399 29.0339 40.6334 29.0974L38.1158 30.5954C38.0084 30.6592 37.9725 30.798 38.0373 30.9049C38.7409 32.0661 39.6322 33.3484 40.7387 34.6387C40.8199 34.7334 40.811 34.8762 40.7162 34.957C39.1221 36.3176 37.201 37.5668 34.9027 38.5056C34.7882 38.5523 34.7319 38.6818 34.7774 38.7967L35.8569 41.5202C35.903 41.6366 36.0357 41.694 36.1517 41.6467C38.6865 40.6143 41.0322 39.1602 43.1199 37.3421C43.2048 37.2681 43.3298 37.2679 43.4146 37.3418C45.3024 38.9899 47.6044 40.5124 50.3916 41.6466C50.5076 41.6938 50.6403 41.6367 50.6865 41.5203L51.7661 38.7966C51.8117 38.6817 51.7553 38.5523 51.6408 38.5055C49.341 37.5661 47.4198 36.3163 45.8258 34.9563C45.7309 34.8754 45.7216 34.7332 45.8029 34.6387C46.4704 33.8624 47.1 33.0419 47.6875 32.1789C49.0192 30.2228 49.8644 28.4554 50.3411 27.3113C50.3761 27.2273 50.4579 27.1723 50.5491 27.1723Z" fill="#607D8B"/>
<path d="M40.6601 44.6163L26.0073 1.57255C25.8886 1.22376 25.5608 0.989258 25.192 0.989258H3.88023C2.01342 0.989258 0.5 2.50104 0.5 4.36577V41.2398C0.5 43.1046 2.01342 44.6163 3.88023 44.6163H40.6601Z" fill="#2196F3"/>
<path d="M40.6592 44.6143L31.7175 55.6747L26.9062 44.6143H40.6592Z" fill="#1565C0"/>
<path d="M25.553 21.8551C25.6361 21.8551 25.7034 21.9225 25.7034 22.0055V23.5851C25.7034 24.1763 25.6485 24.7544 25.5431 25.3151C24.7284 29.6708 20.8911 32.9624 16.2917 32.9307C11.1307 32.8951 7.00037 28.7251 7.01174 23.564C7.02312 18.4122 11.2031 14.2393 16.3576 14.2393C18.883 14.2393 21.1742 15.2411 22.8565 16.8684C22.9172 16.9271 22.9188 17.0239 22.859 17.0837L20.6243 19.3183C20.5668 19.3758 20.4738 19.3774 20.4149 19.3213C19.3591 18.3162 17.9305 17.6992 16.3576 17.6992C13.1095 17.6992 10.4939 20.2962 10.4719 23.5442C10.4497 26.8136 13.0934 29.4708 16.3576 29.4708C19.006 29.4708 21.246 27.7213 21.9846 25.315H16.508C16.4249 25.315 16.3576 25.2476 16.3576 25.1646V22.0056C16.3576 21.9225 16.425 21.8553 16.508 21.8553L25.553 21.8551Z" fill="#F5F5F5"/>
</g>
<defs>
<clipPath id="clip0_1_1872">
<rect width="56" height="56" fill="white" transform="translate(0.5 0.333252)"/>
</clipPath>
</defs>
</svg>
