<svg width="48" height="49" viewBox="0 0 48 49" fill="none" xmlns="http://www.w3.org/2000/svg">
<g clip-path="url(#clip0_1_1655)">
<path d="M4.37262 26.2406C2.95034 26.2406 1.57134 25.7824 0.673653 25.322L-0.00390625 28.0792C0.827372 28.5389 2.49142 28.9762 4.17637 28.9762C8.22531 28.9762 10.1289 26.8756 10.1289 24.4026C10.1289 22.3237 8.90286 20.9671 6.29934 20.0037C4.39501 19.2807 3.56373 18.8658 3.56373 17.9248C3.56373 17.1584 4.26367 16.5018 5.70834 16.5018C7.153 16.5018 8.20366 16.9182 8.79392 17.2025L9.53864 14.5109C8.66259 14.1169 7.43731 13.7669 5.774 13.7669C2.29442 13.7669 0.193093 15.6921 0.193093 18.2091C0.193093 20.3537 1.79073 21.7103 4.24203 22.564C6.01428 23.199 6.71497 23.7243 6.71497 24.6422C6.71497 25.6063 5.90459 26.2406 4.37262 26.2406Z" fill="black"/>
<path d="M21.7933 26.0199H15.7318V22.5187H21.1583V19.8047H15.7318V16.7408H21.4873V14.0052H12.3828V28.7555H21.7933V26.0199Z" fill="black"/>
<path d="M33.0749 29.8759C35.1456 29.8759 37.0432 29.1305 38.5207 27.8962L41.4586 30.6378C41.4541 30.9438 41.5653 31.2467 41.8055 31.4713L46.1164 35.4964C46.3321 35.6979 46.6052 35.7971 46.879 35.7971C47.1783 35.7971 47.4775 35.6777 47.6976 35.4404C48.1192 34.9897 48.0946 34.2793 47.6439 33.8585L43.333 29.8341C43.0928 29.6095 42.7808 29.5207 42.4779 29.5454L39.5788 26.8403C40.8258 25.3606 41.5817 23.4518 41.5817 21.3691C41.5817 16.6792 37.767 12.8646 33.0771 12.8646C28.3872 12.8646 24.5703 16.6807 24.5703 21.3699C24.5696 26.0613 28.3849 29.8759 33.0749 29.8759ZM33.0749 15.1039C36.5306 15.1039 39.3416 17.9149 39.3416 21.3699C39.3416 24.8248 36.5291 27.6365 33.0749 27.6365C29.6207 27.6365 26.8082 24.8248 26.8082 21.3699C26.8082 17.9149 29.6192 15.1039 33.0749 15.1039Z" fill="black"/>
</g>
<defs>
<clipPath id="clip0_1_1655">
<rect width="48" height="48" fill="white" transform="translate(0 0.333313)"/>
</clipPath>
</defs>
</svg>
