<svg width="57" height="23" viewBox="0 0 57 23" fill="none" xmlns="http://www.w3.org/2000/svg">
<path d="M56.6925 11.5955C56.6925 11.2675 56.6748 10.9394 56.657 10.6291C56.6393 10.3188 56.5861 9.99075 56.5506 9.68043H52.1175H47.6845L46.3368 11.7906L44.9891 13.9007H51.825C51.426 15.2839 50.6369 16.4719 49.5818 17.3053C48.5267 18.1476 47.1968 18.653 45.6452 18.653C43.7124 18.653 42.0012 17.855 40.7422 16.5606C39.4832 15.2661 38.7208 13.5018 38.7208 11.5512C38.7208 9.6361 39.4832 7.88946 40.76 6.61274C42.019 5.33601 43.7656 4.53805 45.6984 4.53805C46.5407 4.53805 47.3209 4.66218 48.048 4.9193C48.775 5.15868 49.4311 5.5222 50.0163 5.95664L51.2043 4.05928L52.3924 2.16192C51.4792 1.52355 50.4596 1.00931 49.3336 0.681265C48.2253 0.335484 47.0018 0.167027 45.725 0.167027C44.0139 0.167027 42.4623 0.477344 41.0969 1.04478C39.7315 1.61221 38.508 2.4279 37.4884 3.44751C35.0679 5.86798 34.3675 8.33277 33.8976 10.5759C33.4011 12.8368 33.1351 14.8937 31.4771 16.534C30.7855 17.2255 30.0408 17.7575 29.1985 18.1033C28.3562 18.4491 27.4696 18.6353 26.5032 18.6353C24.5171 18.6353 22.7262 17.8107 21.414 16.5251C20.1195 15.2307 19.3216 13.4663 19.3216 11.5512C19.3216 9.67156 20.1195 7.92493 21.414 6.63047C22.7084 5.33601 24.4906 4.52032 26.5032 4.49372C27.3455 4.51145 28.108 4.63558 28.8172 4.85723C29.5265 5.07889 30.1826 5.42467 30.7678 5.85911L31.9736 3.96175L33.1794 2.06439C32.2662 1.42602 31.2466 0.938384 30.1383 0.610335C29.03 0.282287 27.8065 0.113831 26.5298 0.113831C24.5615 0.113831 22.7173 0.583738 21.1125 1.42602C19.5078 2.26831 18.1424 3.44751 17.105 4.87497C16.7061 3.61597 15.8638 2.54316 14.72 1.7984C13.5674 1.03591 12.1134 0.592603 10.4731 0.592603H5.33075H0.197235V11.5867V22.5452H11.5016C12.9202 22.5452 14.1969 22.1995 15.252 21.6143C16.3071 21.0291 17.1494 20.1957 17.7345 19.2116C18.7896 20.3819 20.0663 21.3217 21.5292 21.9778C22.9922 22.6339 24.6058 22.9974 26.3613 22.9974C28.4005 22.9974 30.2802 22.5275 31.9027 21.6675C33.5252 20.8075 34.8906 19.5928 35.9456 18.0767C36.9475 19.5751 38.3129 20.7897 39.9532 21.6498C41.5757 22.5098 43.4908 22.9974 45.53 22.9974C48.6863 22.9974 51.4703 21.7207 53.4741 19.646C55.4778 17.6068 56.6925 14.7519 56.6925 11.5955ZM4.9495 9.50311V4.70651H10.3667C11.0583 4.70651 11.6612 4.96363 12.0956 5.38034C12.5301 5.79705 12.8049 6.39995 12.8049 7.09151C12.8049 7.78307 12.5301 8.38597 12.0956 8.80268C11.6612 9.23712 11.0406 9.49424 10.3667 9.49424H7.66255H4.9495V9.50311ZM4.9495 18.4845V13.5106H11.4395C12.1666 13.5106 12.8049 13.7855 13.2837 14.2199C13.7536 14.6544 14.0462 15.275 14.0462 15.9843C14.0462 16.6936 13.7536 17.3142 13.2837 17.7664C12.8138 18.2186 12.1754 18.4934 11.4395 18.4934H8.19452H4.9495V18.4845Z" fill="#42175B"/>
</svg>
