<svg width="38" height="11" viewBox="0 0 38 11" fill="none" xmlns="http://www.w3.org/2000/svg">
<path d="M7.24166 6.26521H2.91392V10.522H0.785522V0.589487H2.91392V4.70438H7.24166V0.589487H9.37005V10.522H7.24166V6.26521ZM14.6201 10.7348C12.4917 10.7348 10.718 9.88348 10.6471 7.4713H12.7755C12.7755 8.5355 13.414 9.17402 14.6201 9.17402C15.4715 9.17402 16.4647 8.74834 16.4647 7.75508C16.4647 6.97467 15.8262 6.76184 14.691 6.4071L13.9816 6.19426C12.4208 5.76858 10.8599 5.13006 10.8599 3.3564C10.8599 1.15706 12.9174 0.376648 14.8329 0.376648C16.7485 0.376648 18.4512 1.01517 18.4512 3.28545H16.3228C16.2519 2.36315 15.6843 1.86652 14.691 1.86652C13.9106 1.86652 13.1302 2.2922 13.1302 3.21451C13.1302 3.92397 13.7687 4.13681 15.1877 4.63344L15.9681 4.84628C17.6708 5.41385 18.735 5.98142 18.735 7.61319C18.735 9.88348 16.5357 10.7348 14.6201 10.7348ZM19.9411 0.589487H23.4175C24.056 0.589487 24.7655 0.589488 25.404 0.731381C26.6101 1.01517 27.5324 1.79558 27.5324 3.14356C27.5324 4.4206 26.752 5.05912 25.5459 5.41385C26.8938 5.69764 27.8871 6.33616 27.8871 7.82603C27.8871 10.0963 25.6168 10.5929 23.9141 10.5929H20.012L19.9411 0.589487ZM23.4175 4.77533C24.3398 4.77533 25.333 4.56249 25.333 3.42735C25.333 2.36315 24.4107 2.07936 23.5594 2.07936H22.0695V4.70438L23.4175 4.77533ZM23.6303 9.03212C24.6236 9.03212 25.6168 8.81929 25.6168 7.61319C25.6168 6.4071 24.7655 6.19426 23.7722 6.19426H22.0695V9.10307L23.6303 9.03212ZM33.4919 10.7348C30.2993 10.7348 28.8803 8.67739 28.8803 5.62669C28.8803 2.57599 30.4412 0.376648 33.6338 0.376648C35.6203 0.376648 37.5358 1.29895 37.6068 3.49829H35.3365C35.1946 2.50504 34.5561 2.00842 33.6338 2.00842C31.6473 2.00842 31.0797 4.13681 31.0797 5.69764C31.0797 7.25846 31.6473 9.10307 33.5628 9.10307C34.5561 9.10307 35.2655 8.5355 35.4074 7.54225H37.6777C37.323 9.88348 35.5493 10.7348 33.4919 10.7348Z" fill="#42175B"/>
</svg>
