<svg width="74" height="25" viewBox="0 0 74 25" fill="none" xmlns="http://www.w3.org/2000/svg">
<path d="M24.523 20.9731H28.5586L31.7225 9.22156H27.6869L24.523 20.9731Z" fill="#42175B"/>
<path d="M45.2175 20.9731H49.253L52.4169 9.22156H48.3814L45.2175 20.9731Z" fill="#42175B"/>
<path d="M65.912 20.9731H69.9476L73.1115 9.22156H69.0759L65.912 20.9731Z" fill="#42175B"/>
<path d="M41.471 13.2248H45.5066C46.0554 10.5775 44.3443 9.22156 40.3733 9.22156C35.7889 9.22156 32.6896 11.4492 31.6565 15.3556C30.7202 18.8746 32.5927 21.0054 36.8866 21.0054C41.245 21.0054 43.7955 19.6495 44.8932 16.6147H40.8576C40.3087 17.9384 39.2434 18.6487 37.7905 18.6487C35.8535 18.6487 35.0786 17.4218 35.6598 15.1619C36.2732 12.8374 37.7583 11.5461 39.7276 11.5461C40.9867 11.5783 41.5678 12.1272 41.471 13.2248Z" fill="#42175B"/>
<path d="M62.1672 13.2248H66.2028C66.7516 10.5775 65.0405 9.22156 61.0695 9.22156C56.4851 9.22156 53.3858 11.4492 52.3527 15.3556C51.4164 18.8746 53.2889 21.0054 57.5828 21.0054C61.9412 21.0054 64.4917 19.6495 65.5894 16.6147H61.5538C61.0049 17.9384 59.9396 18.6487 58.4867 18.6487C56.5497 18.6487 55.7748 17.4218 56.356 15.1619C56.9694 12.8374 58.4545 11.5461 60.4238 11.5461C61.6829 11.5783 62.264 12.1272 62.1672 13.2248Z" fill="#42175B"/>
<path d="M6.37907 5.8961C11.7706 0.569142 18.2921 -0.819095 20.9071 2.82906C23.5222 6.47722 21.23 13.8058 15.8384 19.1651C10.4469 24.492 3.92544 25.8802 1.31039 22.2321C-1.30466 18.5839 0.955261 11.2553 6.37907 5.8961Z" fill="#42175B"/>
<path d="M9.92973 3.05488C9.3486 3.50687 8.7352 3.99114 8.15407 4.57226C3.40824 9.22124 1.47117 15.6136 3.79566 18.8098C6.18472 22.0059 12.0282 20.8437 16.8386 16.1301C19.4214 13.6119 21.1648 10.674 21.9073 7.96214C22.1333 5.9605 21.8427 4.18484 20.9388 2.82889C18.808 -0.0121499 14.385 0.213841 9.92973 3.05488Z" fill="#42175B"/>
<path d="M16.4191 2.8934C17.0326 3.5068 16.6774 4.89504 15.5798 5.99272C14.4821 7.05811 13.0938 7.44553 12.4804 6.83212C11.8347 6.21871 12.2222 4.83047 13.2875 3.7328C14.4175 2.60284 15.8057 2.27999 16.4191 2.8934ZM12.6096 21.7799C10.0914 23.6847 7.47632 24.6209 4.92584 24.2335C5.99123 24.2981 6.86292 23.1035 7.57318 21.5216C8.28344 19.9074 8.73542 18.39 9.05827 16.9695C9.57482 14.7418 9.60711 13.1276 9.34883 12.7725C8.92913 12.1914 7.92831 12.3528 6.83063 12.9985C6.31408 13.289 5.60382 13.0953 6.44322 12.0945C7.28262 11.0614 10.6402 8.60777 11.867 8.22035C13.1907 7.83294 14.7081 8.34949 14.1915 9.8023C13.8041 10.8677 9.15512 23.0713 12.6096 21.7799Z" fill="white"/>
</svg>
