<svg width="108" height="37" viewBox="0 0 108 37" fill="none" xmlns="http://www.w3.org/2000/svg">
<path d="M53.9196 12.0633C56.1045 12.0633 58.2386 11.8601 60.3727 12.1395C62.9132 12.4952 63.1927 15.2898 62.3543 16.8142C61.9986 17.3731 61.3127 17.7034 60.9062 18.1099C61.1856 18.2369 61.5159 18.3893 61.8716 18.5926C63.0403 19.3547 63.5992 20.4472 63.2435 22.0223C62.964 23.4705 62.0748 24.5629 60.6267 24.7662C58.4164 25.0456 56.1553 24.9694 53.9704 25.0456C53.9196 20.5234 53.9196 16.2553 53.9196 12.0633ZM56.6888 22.7845C57.451 22.7845 58.1878 22.8607 58.9499 22.7845C59.9916 22.6575 60.4489 22.0223 60.4489 20.9299C60.4489 19.8375 59.9662 18.9991 59.0008 18.872C58.2386 18.7958 57.4256 18.872 56.6634 18.872C56.6888 20.1677 56.6888 21.4126 56.6888 22.7845ZM56.6888 14.045C56.6888 15.2898 56.6888 16.3823 56.6888 17.6272C57.2986 17.6272 57.8575 17.6272 58.4672 17.6272C59.4326 17.6272 59.9154 17.0174 59.9662 16.1282C60.0424 14.9596 59.4835 14.1974 58.5943 14.1466C57.9083 13.9941 57.3748 14.045 56.6888 14.045Z" fill="#42175B"/>
<path d="M51.6587 24.8423C50.7695 24.7661 49.7278 25.325 49.2451 24.0294C48.8895 24.1564 48.6862 24.3088 48.4322 24.4358C46.3743 25.5283 44.164 24.8423 43.2748 22.7083C42.5126 20.9807 42.5126 19.2785 43.4018 17.6271C44.4943 15.6963 46.5013 15.2898 48.5592 15.6963C48.7624 15.7725 48.9149 15.8233 49.2451 15.8995C49.2451 15.1374 49.2451 14.5276 49.2451 13.9179C49.2451 13.3082 49.2451 12.673 49.2451 11.9871C50.0581 11.9871 50.8965 11.9871 51.6587 11.9871C51.6587 16.2552 51.6587 20.5234 51.6587 24.8423ZM49.1943 20.0915C49.1943 19.5325 49.1943 18.999 49.1943 18.5163C49.1943 18.3131 49.1181 18.1098 49.0673 17.9574C48.1019 17.1444 45.917 17.1444 45.5613 18.7704C45.4343 19.3801 45.3581 20.0661 45.4343 20.752C45.5613 22.5304 47.0857 23.3688 48.6608 22.5304C49.0673 22.3272 49.3468 22.0477 49.2705 21.565C49.1181 21.0569 49.1943 20.5742 49.1943 20.0915Z" fill="#42175B"/>
<path d="M41.852 20.777C39.5147 20.777 37.3298 20.777 35.1957 20.777C35.272 21.9457 36.0849 22.9111 37.3298 22.8349C38.4223 22.7587 39.5401 22.5554 40.6834 22.3522C40.6834 22.8349 40.6834 23.3938 40.6834 24.0035C40.6834 24.1306 40.5563 24.3592 40.4801 24.41C38.4985 25.3754 34.7893 25.5025 33.1887 22.8349C32.2233 21.1073 32.3757 18.5667 33.5444 17.0678C34.7892 15.4926 36.8471 14.8575 38.8288 15.4926C40.3277 15.9753 41.1661 17.144 41.5726 18.6429C41.6996 19.3543 41.6996 19.964 41.852 20.777ZM39.3115 19.5575C39.4385 18.5159 38.4223 17.4235 37.3298 17.4235C36.0341 17.3472 35.1195 18.1856 35.1195 19.5575C36.4914 19.5575 37.9396 19.5575 39.3115 19.5575Z" fill="#42175B"/>
<path d="M70.9656 24.9182C70.8894 24.5625 70.8894 24.3084 70.8894 23.9528C70.5337 24.156 70.2034 24.3084 69.924 24.4355C69.111 24.842 68.1964 25.1976 67.2564 24.9944C65.9607 24.7149 65.1223 23.9528 65.0715 22.5809C64.9953 20.3706 65.0715 18.1857 65.0715 15.9246C65.8336 15.9246 66.5704 15.9246 67.485 15.9246C67.485 16.1278 67.485 16.3311 67.485 16.6105C67.485 18.1095 67.485 19.5576 67.485 21.0819C67.485 22.3776 68.2472 23.0127 69.5429 22.7333C70.6353 22.53 70.991 22.0473 70.991 20.8787C70.991 19.2273 70.991 17.6521 70.991 15.9246C71.804 15.9246 72.5662 15.9246 73.4045 15.9246C73.4045 16.1278 73.4808 16.4073 73.4808 16.6105C73.4808 19.1511 73.4808 21.6917 73.4808 24.156C73.4808 24.7149 73.3537 24.9182 72.7186 24.9182C72.058 24.842 71.4991 24.9182 70.9656 24.9182Z" fill="#42175B"/>
<path d="M75.1573 24.4862C75.1573 23.597 75.1573 22.911 75.1573 22.3521C76.2498 22.5553 77.3676 22.7586 78.4601 22.911C78.7396 22.9872 79.0698 22.911 79.2731 22.784C79.5525 22.5807 79.959 22.225 80.0352 21.971C80.0352 21.6915 79.6796 21.2088 79.3493 21.158C78.6633 20.9548 77.9012 20.8785 77.2152 20.7515C75.2844 20.345 74.5984 18.0077 75.9195 16.5596C76.6817 15.6704 77.6471 15.3147 78.8158 15.3147C79.6288 15.3147 80.4671 15.4417 81.2801 15.5942C81.4071 15.5942 81.6104 15.8736 81.6104 16.0007C81.6866 16.6104 81.6104 17.1693 81.6104 17.7791C80.7212 17.652 79.832 17.4996 78.9428 17.3726C78.6633 17.3726 78.3839 17.3726 78.1806 17.4996C77.9012 17.6266 77.5709 17.9823 77.6217 18.1855C77.6217 18.3888 77.9774 18.7953 78.2314 18.8715C78.7904 19.0747 79.4001 19.0747 80.0098 19.2272C81.1785 19.4304 81.9915 19.9893 82.3472 21.158C82.7028 22.3267 82.1439 23.6224 81.1785 24.3845C80.2131 25.1467 79.0444 25.1975 77.8758 25.0705C76.9357 24.918 76.0465 24.6386 75.1573 24.4862Z" fill="#42175B"/>
<path d="M25.8446 15.8484C26.6576 15.7722 27.496 15.7213 28.309 15.6451C28.309 15.9246 28.3852 16.1278 28.3852 16.4581C28.7409 16.2549 28.995 16.1786 29.1982 15.9754C29.9604 15.4927 30.6971 15.3657 31.6117 15.4927C31.815 15.4927 32.0182 15.7722 32.0182 15.9754C32.0944 16.7376 32.0182 17.4743 32.0182 18.1095C31.2052 18.0333 30.3669 17.9062 29.5539 18.0333C28.5122 18.1603 28.2582 18.5922 28.2582 19.6084C28.2582 21.336 28.2582 22.962 28.2582 24.8166C27.496 24.8166 26.8101 24.8166 26.1241 24.8166C25.9971 24.8166 25.7684 24.4101 25.7684 24.2577C25.7684 21.8441 25.7684 19.5068 25.7684 17.1187C25.8446 16.7376 25.8446 16.3311 25.8446 15.8484Z" fill="#42175B"/>
</svg>
