<svg width="46" height="25" viewBox="0 0 46 25" fill="none" xmlns="http://www.w3.org/2000/svg">
<path d="M42.9461 6.20242C42.3282 5.9875 41.8178 5.79944 41.8178 5.39645C41.8178 4.93973 42.1402 4.7248 42.8118 4.7248C43.3491 4.7248 44.0208 4.91286 44.585 5.23525H44.6118L44.9342 4.24122C44.37 3.8651 43.4029 3.59644 42.4894 3.59644C40.9312 3.59644 39.9909 4.32181 39.9909 5.55764C39.9909 6.8472 41.0655 7.22332 41.9521 7.59944C42.5969 7.8681 43.2417 8.19049 43.2417 8.67408C43.2417 9.18453 42.8656 9.37259 42.1402 9.37259C41.4954 9.37259 40.77 9.15766 40.2058 8.80841H40.179L39.8297 9.82931C40.3939 10.2323 41.4417 10.5278 42.3551 10.5278C43.2148 10.5278 43.8865 10.3398 44.3432 9.93677C44.7999 9.56065 45.0148 8.99646 45.0148 8.29795C45.0148 6.98153 43.8596 6.55168 42.9461 6.20242Z" fill="#42175B"/>
<path d="M38.9181 8.19051V6.52483C38.9181 5.5308 38.6763 4.80542 38.1928 4.32184C37.6554 3.78452 37.0644 3.54272 36.2047 3.54272C35.3181 3.54272 34.2704 3.86511 33.5718 4.3487L33.8674 5.34273H33.8942C34.4584 4.99348 35.1032 4.77855 35.6942 4.77855C36.2047 4.77855 36.6345 4.91288 36.8495 5.15467C37.0913 5.42333 37.1987 5.66513 37.1987 6.33677C36.7957 6.14871 36.2853 6.17558 35.8017 6.17558C35.7211 6.17558 35.6674 6.17558 35.5868 6.17558C34.0554 6.17558 33.0883 7.00841 33.0883 8.37857C33.0883 9.02335 33.3032 9.56067 33.7062 9.93679C34.1092 10.3129 34.7002 10.5278 35.3987 10.5278C36.0166 10.5278 36.7689 10.286 37.3599 9.88306C37.3868 10.0711 37.4405 10.2054 37.4942 10.3666H39.0256V10.3398C38.945 9.64126 38.9181 9.18455 38.9181 8.19051ZM37.1987 7.33081V8.91589C36.742 9.18455 36.2853 9.4532 35.9629 9.4532C35.2913 9.4532 34.9151 9.07708 34.9151 8.37857C34.9151 7.62633 35.3181 7.19648 36.0435 7.19648C36.0972 7.19648 36.151 7.19648 36.1778 7.19648C36.2316 7.19648 36.2853 7.19648 36.3659 7.19648C36.5808 7.19648 36.9032 7.19648 37.1987 7.33081Z" fill="#42175B"/>
<path d="M0.0971069 2.25298H2.70309V10.3665H4.6643V2.25298H7.27028V0.855957H0.0971069V2.25298Z" fill="#42175B"/>
<path d="M9.90317 10.3665V5.28882C10.2793 5.02016 10.7629 4.85897 11.1659 4.85897C11.8912 4.85897 12.2405 5.34255 12.2405 6.36345V10.3665H14.0674V6.39032C14.0674 5.45001 13.8524 4.7515 13.3957 4.26791C12.9659 3.8112 12.5092 3.62314 11.8375 3.62314C11.1659 3.62314 10.4674 3.8112 9.90317 4.16045V0.855957H8.07629V10.3396L9.90317 10.3665Z" fill="#42175B"/>
<path d="M30.4029 10.3666H32.2298V6.39048C32.2298 5.36958 32.0417 4.69794 31.6119 4.24122C31.2089 3.81136 30.7253 3.59644 30.0805 3.59644C29.3283 3.59644 28.5223 3.89196 27.8238 4.42928C27.7969 4.40241 27.77 4.34868 27.7432 4.32182C27.7163 4.29495 27.7163 4.29495 27.6894 4.26808C27.2865 3.83823 26.776 3.6233 26.1581 3.6233C25.4596 3.6233 24.7342 3.8651 24.1163 4.32182C24.0626 4.16062 24.0357 4.08002 24.0088 3.99942C23.982 3.94569 23.982 3.86509 23.9551 3.81136H22.4775V10.3398H24.3044V6.73974C24.3044 6.44422 24.3044 6.14869 24.3044 5.88003C24.3044 5.6651 24.3044 5.45018 24.3044 5.26212C24.7611 4.91286 25.2178 4.83226 25.5133 4.83226C25.782 4.83226 25.9969 4.91286 26.1581 5.07406C26.373 5.34271 26.4805 5.69197 26.4805 6.33675V10.3398H28.3074V6.36362C28.3074 6.14869 28.3074 5.96063 28.3074 5.7457C28.3074 5.55764 28.3074 5.36958 28.3074 5.20838C28.7641 4.85913 29.1671 4.8054 29.4626 4.8054C29.7312 4.8054 29.9462 4.886 30.1074 5.04719C30.3223 5.31585 30.4298 5.66511 30.4298 6.30988L30.4029 10.3666Z" fill="#42175B"/>
<path d="M18.2323 10.5278C19.2801 10.5278 20.1398 10.2054 20.7308 9.61438C21.3219 9.02333 21.6174 8.16363 21.6174 7.14273C21.6174 6.09496 21.3219 5.23525 20.7308 4.59047C20.1398 3.94569 19.2801 3.59644 18.2323 3.59644C16.1636 3.59644 14.9009 4.886 14.9009 7.06213C14.9278 9.21139 16.1636 10.5278 18.2323 10.5278ZM18.2323 4.67107C19.1726 4.67107 19.6562 5.47704 19.6562 7.06213C19.6562 8.64721 19.1726 9.45318 18.2323 9.45318C17.292 9.45318 16.8084 8.64721 16.8084 7.06213C16.8084 5.47704 17.292 4.67107 18.2323 4.67107Z" fill="#42175B"/>
<path d="M14.5 22.509C13.7746 22.8045 12.8343 22.9388 12.297 22.9388C11.5448 22.9388 11.0075 22.7507 10.6045 22.4015C9.93284 21.7836 9.63731 20.8433 9.63731 19.4462C9.63731 17.7806 10.1209 16.9209 10.5508 16.491C10.9269 16.1149 11.4642 15.9268 12.1358 15.9268C12.7537 15.9268 13.6941 16.088 14.4463 16.4641H14.4732L14.8224 15.3358C13.9627 14.8253 12.8075 14.6373 12.0015 14.6373C10.7119 14.6373 9.69105 15.0134 8.9388 15.7925C8.0791 16.6791 7.62238 17.9418 7.62238 19.4462C7.62238 21.1119 8.10596 22.4284 9.0194 23.2343C9.74478 23.906 10.7657 24.2284 12.0284 24.2284C12.8343 24.2284 13.9627 24.0672 14.8224 23.6642L14.5 22.509Z" fill="#42175B"/>
<path d="M18.5284 17.3239C16.4597 17.3239 15.197 18.6135 15.197 20.7896C15.197 22.9657 16.4328 24.2553 18.5284 24.2553C20.597 24.2553 21.8597 22.9657 21.8597 20.7896C21.8597 18.6135 20.6239 17.3239 18.5284 17.3239ZM18.5284 23.1538C17.5881 23.1538 17.1045 22.3478 17.1045 20.7627C17.1045 19.1777 17.5881 18.3717 18.5284 18.3717C19.4687 18.3717 19.9523 19.1777 19.9523 20.7627C19.9791 22.3478 19.4956 23.1538 18.5284 23.1538Z" fill="#42175B"/>
<path d="M36.1279 17.4854H34.2205L31.7757 19.9033V14.557H29.9488V24.0675H31.7757V21.2197L34.0593 24.0406V24.0675H36.1817L33.1727 20.36L36.1279 17.4854Z" fill="#42175B"/>
<path d="M25.7836 17.3239C23.715 17.3239 22.4523 18.6135 22.4523 20.7896C22.4523 22.9657 23.6881 24.2553 25.7836 24.2553C27.8523 24.2553 29.0881 22.9657 29.0881 20.7896C29.0881 18.6135 27.8523 17.3239 25.7836 17.3239ZM25.7836 23.1538C24.8433 23.1538 24.3597 22.3478 24.3597 20.7627C24.3597 19.1777 24.8433 18.3717 25.7836 18.3717C26.7239 18.3717 27.2075 19.1777 27.2075 20.7627C27.2075 22.3478 26.7239 23.1538 25.7836 23.1538Z" fill="#42175B"/>
</svg>
