<svg width="86" height="23" viewBox="0 0 86 23" fill="none" xmlns="http://www.w3.org/2000/svg">
<path d="M13.0466 5.88581V17.637H8.94792V16.1799C8.11172 17.3329 6.9081 17.9917 5.19135 17.9917C2.44203 17.9917 0.845642 16.389 0.845642 13.4496V5.88581H4.94429V12.5944C4.94429 14.1465 5.58412 14.7799 6.86376 14.7799C8.21308 14.7799 8.95426 14.0324 8.95426 12.4741V5.88581H13.0466ZM28.2882 11.7519C28.2882 13.1139 28.0412 14.2225 27.6231 15.141C26.7615 16.9085 25.1145 17.9664 22.8593 17.9664C21.2629 17.9664 20.0339 17.4469 19.1724 16.3383V22.3881H15.0737V5.88581H19.0837V7.29848C19.9706 6.09486 21.2185 5.53106 22.8656 5.53106C25.1271 5.53106 26.7679 6.59531 27.6294 8.38174C28.0412 9.30029 28.2882 10.4089 28.2882 11.7519ZM23.9235 11.7519C23.9235 10.9284 23.8222 10.3392 23.6258 9.91478C23.2584 9.13559 22.5235 8.73649 21.5163 8.73649C19.9706 8.73649 19.1344 9.67405 19.1344 11.4161V12.0496C19.1344 13.7917 19.9706 14.7293 21.5163 14.7293C22.5235 14.7293 23.2584 14.3302 23.6258 13.551C23.8222 13.1392 23.9235 12.5691 23.9235 11.7519ZM48.9335 5.88581H53.0132V6.94373C53.653 5.95549 54.3372 5.5564 55.3254 5.5564C56.7951 5.5564 57.7327 6.47495 57.7327 7.83694C57.7327 9.15459 56.7761 10.1238 55.3761 10.1238C54.5145 10.1238 53.7797 9.69306 53.4566 9.05957C53.1145 9.19894 53.0385 9.38898 53.0385 10.2125V17.6243H48.9399L48.9335 5.88581ZM70.7064 10.8777V17.637H66.6078V16.2496C65.7969 17.3329 64.5426 17.9664 62.5535 17.9664C60.615 17.9664 59.1643 17.3076 58.5562 15.9899C58.3091 15.5211 58.2141 14.9763 58.2141 14.3175C58.2141 13.684 58.3091 13.1646 58.5055 12.7148C59.3924 10.8777 61.768 10.4532 64.7643 10.4532H66.6078V10.2632C66.6078 9.56003 66.5634 9.3003 66.4114 8.98989C66.1707 8.47676 65.6005 8.2107 64.72 8.2107C63.7634 8.2107 63.225 8.45143 62.9779 8.96455C62.8829 9.19894 62.8575 9.36364 62.8322 9.67405H58.6575C58.6829 9.03423 58.8096 8.49577 59.025 8.02699C59.8358 6.30391 61.9263 5.53106 64.6757 5.53106C67.6404 5.53106 69.3888 6.27857 70.1997 7.97631C70.5354 8.76183 70.7064 9.72473 70.7064 10.8777ZM66.3861 14.1021C66.5571 13.7727 66.6078 13.4433 66.6078 12.8098V12.6451H65.0367C63.8585 12.6451 62.9019 12.7655 62.6358 13.3799C62.5598 13.5193 62.5155 13.684 62.5155 13.8931C62.5155 14.1021 62.5408 14.2732 62.6358 14.4569C62.8829 14.9763 63.5227 15.16 64.2639 15.16C65.3535 15.16 66.063 14.7863 66.3861 14.1021ZM85.5997 1.02064V17.637H81.6024V16.2243C80.7155 17.4026 79.4865 17.9664 77.8205 17.9664C75.5589 17.9664 73.9182 16.9275 73.0567 15.141C72.6386 14.2225 72.3915 13.1139 72.3915 11.7519C72.3915 10.4152 72.6386 9.30663 73.0567 8.38808C73.8865 6.60165 75.5589 5.53739 77.8205 5.53739C79.4169 5.53739 80.6205 6.05685 81.501 7.15911V1.02064H85.5997ZM81.5454 11.4225C81.5454 9.68039 80.7092 8.74283 79.1635 8.74283C78.1562 8.74283 77.4214 9.14192 77.054 9.92111C76.8576 10.3455 76.7562 10.9347 76.7562 11.7582C76.7562 12.6071 76.8576 13.1709 77.054 13.6207C77.4214 14.3935 78.1562 14.799 79.1635 14.799C80.7092 14.799 81.5454 13.8551 81.5454 12.1193V11.4225ZM39.672 8.79351V11.8216H42.3199L42.2249 12.2207C41.8955 13.5383 40.2548 14.4189 38.9245 14.4189C37.081 14.4189 34.6928 13.57 34.6928 9.50935C34.6928 6.14554 36.2258 4.54282 38.5824 4.54282C39.8684 4.54282 40.8566 4.83422 41.4521 5.68943C41.6991 6.06952 41.9272 6.58264 41.9589 7.01341H46.653C46.653 7.01341 46.767 4.92291 44.9933 3.11114C44.9616 3.07947 44.9362 3.05413 44.9109 3.02879C43.4792 1.54643 41.3317 0.7229 38.6774 0.7229C33.2548 0.7229 29.7516 4.18173 29.7516 9.53469C29.7516 15.7238 34.186 17.922 37.9869 17.922C40.1218 17.922 42.0349 17.3076 43.2068 16.1103L43.2638 17.637H46.9381V8.79351H39.672Z" fill="#42175B"/>
</svg>
