<svg width="77" height="19" viewBox="0 0 77 19" fill="none" xmlns="http://www.w3.org/2000/svg">
<path d="M0.879207 5.04861C2.04897 5.04861 3.21872 5.08111 4.37765 5.03778C4.84339 5.02695 4.99503 5.20025 5.0925 5.61183C5.66655 8.04883 6.26226 10.475 6.87964 13.042C6.97712 12.7712 7.03127 12.6304 7.0746 12.4896C7.69197 10.1826 8.32017 7.87553 8.92671 5.56851C9.03502 5.16776 9.19749 5.01612 9.61991 5.03778C10.3889 5.08111 11.1471 5.07028 11.9161 5.03778C12.2627 5.02695 12.4035 5.13526 12.501 5.48186C13.1292 7.8647 13.779 10.2475 14.4289 12.6196C14.4506 12.6845 14.4722 12.7495 14.5264 12.912C14.7972 12.3596 14.8622 11.8397 14.9813 11.3415C15.4579 9.41355 15.9344 7.48561 16.3785 5.54684C16.4652 5.17859 16.5843 5.00529 17.0175 5.02695C18.0465 5.07028 19.0863 5.04861 20.1152 5.03778C20.5052 5.02695 20.5593 5.13526 20.4402 5.49269C19.1621 9.55435 17.8949 13.6268 16.6385 17.6993C16.541 18.0134 16.4002 18.1218 16.0861 18.1109C15.1871 18.0893 14.2881 18.0893 13.3891 18.1109C13.0209 18.1218 12.9017 17.9701 12.8151 17.6452C12.1219 15.0241 11.4179 12.4138 10.7138 9.79263C10.5081 9.87928 10.5405 10.0526 10.4972 10.1934C9.86902 12.6304 9.22999 15.0782 8.62344 17.526C8.51513 17.9485 8.34184 18.0676 7.91942 18.0568C7.0746 18.0243 6.22977 18.0243 5.39578 18.0568C4.9517 18.0784 4.76757 17.9376 4.64843 17.5044C3.47867 13.6052 2.28725 9.71682 1.09583 5.82845C1.04167 5.63349 1.04167 5.41687 0.857544 5.26523L0.879207 5.04861Z" fill="#42175B"/>
<path d="M76.6986 18.0244C75.2039 18.0352 73.7092 18.0352 72.2254 18.0569C71.9329 18.0569 71.8354 17.8619 71.7163 17.6778L69.4418 14.1685C69.236 14.1685 69.2035 14.3527 69.1277 14.461C68.4236 15.5333 67.7196 16.6055 67.0373 17.6886C66.8748 17.9378 66.7123 18.0677 66.3982 18.0569C65.1202 18.0352 63.8313 18.0569 62.5532 18.0461C62.4124 18.0461 62.2283 18.1327 62.1416 17.9486C62.055 17.7645 62.2283 17.667 62.3041 17.5478C63.7446 15.5657 65.1743 13.5837 66.6365 11.6232C66.9398 11.2225 66.9073 10.9734 66.6257 10.5943C65.3909 8.93711 64.1887 7.25829 62.9864 5.57947C62.8781 5.42784 62.7157 5.30869 62.7048 5.02709C64.1779 5.02709 65.6401 5.02709 67.1023 5.02709C67.373 5.02709 67.4272 5.26537 67.5247 5.43867C68.1312 6.41347 68.7161 7.38827 69.366 8.43888C69.9942 7.42076 70.6115 6.47845 71.1531 5.50365C71.3805 5.1029 71.6297 4.99459 72.0629 5.00542C73.3843 5.02708 74.7057 5.01625 76.0487 5.01625C76.0596 5.2762 75.8755 5.40617 75.7563 5.55781C74.4891 7.29079 73.2218 9.01293 71.9438 10.7351C71.7921 10.9517 71.6622 11.1142 71.8679 11.3849C73.4385 13.4862 74.9873 15.5874 76.5578 17.6995C76.5903 17.7428 76.6445 17.7536 76.6986 17.7861V18.0244Z" fill="#42175B"/>
<path d="M31.28 6.38123C31.3233 5.02735 31.3233 5.02735 32.5147 5.02735C33.2404 5.02735 33.9661 5.03818 34.6918 5.02735C34.9951 5.01651 35.1359 5.07067 35.1359 5.42809C35.125 9.50059 35.125 13.5731 35.1359 17.6564C35.1359 18.003 35.0059 18.068 34.7026 18.068C33.782 18.0572 32.8613 18.0355 31.9515 18.0788C31.4208 18.1005 31.215 17.938 31.3017 17.4181C31.3125 17.234 31.3125 17.0499 31.3017 16.8657C30.9984 17.1907 30.7926 17.4614 30.5435 17.6781C29.4062 18.6745 28.0307 18.772 26.6443 18.5662C23.2542 18.068 20.8713 15.2952 20.7738 11.8184C20.6764 8.34166 22.8967 5.48225 26.276 4.75657C27.1425 4.56161 28.0307 4.55077 28.8972 4.72407C29.8611 4.91903 30.6301 5.43893 31.28 6.38123ZM27.9549 14.8295C29.7853 14.8403 31.3017 13.3456 31.2908 11.5368C31.28 9.77137 29.807 8.27667 28.0415 8.26584C26.2327 8.22252 24.7164 9.65222 24.673 11.461C24.6297 13.2698 26.0594 14.7862 27.8682 14.8295C27.9007 14.8295 27.9224 14.8295 27.9549 14.8295Z" fill="#42175B"/>
<path d="M42.4925 7.9623C40.7487 7.9623 39.124 7.95147 37.4994 7.97313C37.0878 7.97313 36.9145 7.89731 36.947 7.4424C36.9903 6.77088 36.9686 6.09935 36.947 5.43865C36.9361 5.14621 37.0336 5.0379 37.3369 5.0379C40.3046 5.04873 43.2723 5.04873 46.2401 5.0379C46.5433 5.0379 46.6408 5.12455 46.63 5.42782C46.6083 6.22932 46.6083 7.03082 46.63 7.84316C46.6408 8.12477 46.5 8.30889 46.3592 8.51468L42.0701 14.4718C41.9401 14.6559 41.8101 14.84 41.6802 15.0242C41.7993 15.2191 41.9726 15.1433 42.1134 15.1433C43.4781 15.1541 44.832 15.165 46.1859 15.1433C46.5433 15.1433 46.6516 15.2408 46.6408 15.5982C46.6191 16.2698 46.6083 16.9413 46.6408 17.602C46.6625 18.0027 46.5 18.0785 46.1426 18.0677C43.229 18.0569 40.3263 18.0569 37.4127 18.0677C37.0769 18.0677 36.9036 17.9811 36.9578 17.6236C36.9686 17.5803 36.9686 17.5478 36.9578 17.5045C36.7412 16.0531 37.2178 14.8834 38.1601 13.7461C39.5464 12.0889 40.7704 10.3018 42.0593 8.56884C42.1784 8.39554 42.3084 8.22225 42.4925 7.9623Z" fill="#42175B"/>
<path d="M58.7723 6.31651C59.5088 5.30922 60.397 4.77849 61.5126 4.62686C61.9025 4.5727 62.1083 4.6052 62.0866 5.0926C62.0542 6.08906 62.065 7.08552 62.0866 8.07115C62.0866 8.38525 62.0108 8.53689 61.6751 8.51522C61.5234 8.51522 61.3718 8.53689 61.2202 8.58021C59.7038 8.79683 59.0431 9.53335 59.0431 11.0714C59.0323 13.1726 59.0214 15.2738 59.0539 17.3859C59.0648 17.8841 58.9673 18.0899 58.4041 18.0683C57.4509 18.0141 56.487 18.0466 55.5338 18.0574C55.2089 18.0574 55.1006 17.9599 55.1006 17.635C55.1114 13.5625 55.1114 9.49003 55.1006 5.41753C55.1006 5.11426 55.2089 5.02761 55.5013 5.02761C56.422 5.03844 57.3426 5.0601 58.2524 5.01678C58.7073 4.99512 58.8265 5.15758 58.7723 5.56917C58.7615 5.81828 58.7615 6.0674 58.7723 6.31651Z" fill="#42175B"/>
<path d="M52.3257 11.5912C52.3257 13.5624 52.3149 15.5337 52.3366 17.5049C52.3366 17.9165 52.2607 18.079 51.8058 18.0682C50.8094 18.0357 49.8129 18.0465 48.8165 18.0682C48.4915 18.0682 48.394 17.9599 48.394 17.6349C48.4049 13.5733 48.4049 9.52243 48.394 5.46077C48.394 5.08168 48.5348 5.02752 48.8706 5.02752C49.8671 5.04919 50.8635 5.04919 51.86 5.02752C52.2391 5.01669 52.3474 5.13583 52.3474 5.51492C52.3257 7.54034 52.3257 9.56575 52.3257 11.5912Z" fill="#42175B"/>
<path d="M52.0221 2.16768C52.0329 3.06666 51.3181 3.80317 50.4299 3.814C50.3974 3.814 50.3758 3.814 50.3433 3.814C49.4226 3.814 48.6753 3.06665 48.6753 2.13518C48.6753 2.13518 48.6753 2.13518 48.6753 2.12435C48.697 1.20371 49.4443 0.467191 50.3758 0.45636C51.2964 0.478022 52.0329 1.2362 52.0221 2.16768C52.0221 2.15684 52.0221 2.15684 52.0221 2.16768Z" fill="#42175B"/>
</svg>
